<svg width="324" height="36" viewBox="0 0 324 36" fill="none" xmlns="http://www.w3.org/2000/svg">
<path d="M24.1157 24.2572C26.1187 22.5126 29.1975 22.6915 30.983 24.6486C32.7571 26.6058 32.5854 29.603 30.5825 31.3476C28.9 32.8127 26.9657 33.9422 24.9055 34.7139C22.8224 35.4856 20.6134 35.8993 18.3701 35.8993C13.2883 35.8993 8.6986 33.8863 5.3794 30.6431C2.04875 27.3886 0 22.904 0 17.9497C0 12.9953 2.04875 8.49953 5.3794 5.25629C8.6986 2.00186 13.2883 0 18.3701 0C20.6363 0 22.8796 0.424977 25.0085 1.2302C27.103 2.02423 29.0602 3.20969 30.7541 4.73066C32.7342 6.48649 32.8716 9.48369 31.0632 11.4073C29.2548 13.342 26.1988 13.4651 24.2187 11.7092C23.429 10.9935 22.5134 10.4455 21.5061 10.0652C20.5447 9.69618 19.4803 9.50606 18.3701 9.50606C15.978 9.50606 13.8148 10.4455 12.2582 11.9776C10.6901 13.4986 9.7287 15.6123 9.7287 17.9497C9.7287 20.2759 10.6901 22.3896 12.2582 23.9217C13.8148 25.4427 15.978 26.3933 18.3701 26.3933C19.4345 26.3933 20.476 26.2032 21.4375 25.8453C22.4218 25.4762 23.326 24.9394 24.1157 24.2572ZM54.4349 0C59.5053 0 64.1064 2.00186 67.4256 5.25629C70.7563 8.49953 72.805 12.9953 72.805 17.9497C72.805 22.904 70.7563 27.3886 67.4256 30.6431C64.1064 33.8863 59.5053 35.8993 54.4349 35.8993C49.3646 35.8993 44.7749 33.8863 41.4443 30.6431C38.1251 27.3886 36.0649 22.904 36.0649 17.9497C36.0649 12.9953 38.1251 8.49953 41.4443 5.25629C44.7749 2.00186 49.3646 0 54.4349 0ZM60.5468 11.9776C58.9902 10.4455 56.827 9.50606 54.4349 9.50606C52.0543 9.50606 49.8911 10.4455 48.323 11.9776C46.7664 13.4986 45.7936 15.6123 45.7936 17.9497C45.7936 20.2759 46.7664 22.3896 48.323 23.9217C49.8911 25.4427 52.0543 26.3933 54.4349 26.3933C56.827 26.3933 58.9902 25.4427 60.5468 23.9217C62.1149 22.3896 63.0763 20.2759 63.0763 17.9497C63.0763 15.6123 62.1149 13.4986 60.5468 11.9776ZM76.4447 16.5517V15.7353C76.4447 15.4222 76.479 15.1202 76.5362 14.8183C76.9483 10.9376 78.7338 7.45946 81.4006 4.8425C84.468 1.84529 88.7028 0 93.3726 0C98.0424 0 102.277 1.84529 105.345 4.8425C108.401 7.8397 110.301 11.9664 110.301 16.5294V31.247C110.301 33.8639 108.114 36 105.436 36C102.747 36 100.572 33.8639 100.572 31.247V16.5294C100.572 14.5946 99.7592 12.8388 98.4659 11.5638C97.1611 10.2889 95.3641 9.50606 93.3726 9.50606C91.3811 9.50606 89.5841 10.2889 88.2794 11.5638C86.986 12.8276 86.1848 14.5722 86.1734 16.4958V31.247C86.1734 33.8639 83.9987 36 81.309 36C78.6308 36 76.4447 33.8639 76.4447 31.247V16.5517ZM114.444 9.50606C111.754 9.50606 109.579 7.36999 109.579 4.75303C109.579 2.12488 111.754 0 114.444 0H135.309C137.999 0 140.173 2.12488 140.173 4.75303C140.173 7.36999 137.999 9.50606 135.309 9.50606H129.735V31.247C129.735 33.8639 127.56 36 124.871 36C122.192 36 120.006 33.8639 120.006 31.247V9.50606H114.444ZM144.511 4.75303C144.511 2.12488 146.686 0 149.376 0C152.065 0 154.24 2.12488 154.24 4.75303V31.247C154.24 33.8639 152.065 36 149.376 36C146.686 36 144.511 33.8639 144.511 31.247V4.75303ZM160.111 16.5517V15.7353C160.111 15.4222 160.146 15.1202 160.203 14.8183C160.615 10.9376 162.401 7.45946 165.067 4.8425C168.135 1.84529 172.37 0 177.039 0C181.709 0 185.944 1.84529 189.011 4.8425C192.067 7.8397 193.967 11.9664 193.967 16.5294V31.247C193.967 33.8639 191.793 36 189.103 36C186.413 36 184.239 33.8639 184.239 31.247V16.5294C184.239 14.5946 183.426 12.8388 182.133 11.5638C180.828 10.2889 179.031 9.50606 177.039 9.50606C175.048 9.50606 173.251 10.2889 171.946 11.5638C170.653 12.8276 169.852 14.5722 169.84 16.4958V31.247C169.84 33.8639 167.666 36 164.976 36C162.298 36 160.111 33.8639 160.111 31.247V16.5517ZM229.78 16.5517V15.7353C229.78 15.4222 229.815 15.1202 229.872 14.8183C230.284 10.9376 232.07 7.45946 234.736 4.8425C237.804 1.84529 242.039 0 246.708 0C251.378 0 255.613 1.84529 258.68 4.8425C261.736 7.8397 263.636 11.9664 263.636 16.5294V31.247C263.636 33.8639 261.45 36 258.772 36C256.082 36 253.908 33.8639 253.908 31.247V16.5294C253.908 14.5946 253.095 12.8388 251.802 11.5638C250.497 10.2889 248.7 9.50606 246.708 9.50606C244.717 9.50606 242.92 10.2889 241.615 11.5638C240.322 12.8276 239.521 14.5722 239.509 16.4958V31.247C239.509 33.8639 237.334 36 234.645 36C231.967 36 229.78 33.8639 229.78 31.247V16.5517ZM208.629 12.4809C208.95 12.8052 209.396 12.9953 209.888 12.9953H220.281C222.97 12.9953 225.145 15.1202 225.145 17.7484C225.145 20.3765 222.97 22.5014 220.281 22.5014H209.888C209.396 22.5014 208.95 22.7027 208.629 23.0158C208.297 23.329 208.103 23.7651 208.103 24.246C208.103 24.7269 208.297 25.1631 208.629 25.4874C208.95 25.8006 209.396 25.9907 209.888 25.9907V26.0019L210.037 25.9907H220.281C222.97 25.9907 225.145 28.1267 225.145 30.7437C225.145 33.3719 222.97 35.4967 220.281 35.4967H209.888C206.706 35.4967 203.833 34.2442 201.75 32.2088C199.656 30.1733 198.374 27.3551 198.374 24.246C198.374 21.8304 199.152 19.5825 200.491 17.7484C199.152 15.9143 198.374 13.6664 198.374 11.2507C198.374 8.14166 199.656 5.33458 201.75 3.28798C203.833 1.25256 206.706 0 209.888 0H220.281C222.97 0 225.145 2.12488 225.145 4.75303C225.145 7.36999 222.97 9.50606 220.281 9.50606H209.888C209.396 9.50606 208.95 9.69618 208.629 10.0093C208.297 10.3336 208.103 10.7698 208.103 11.2507C208.103 11.7316 208.297 12.1678 208.629 12.4809ZM269.348 9.50606C266.658 9.50606 264.483 7.36999 264.483 4.75303C264.483 2.12488 266.658 0 269.348 0H290.213C292.902 0 295.077 2.12488 295.077 4.75303C295.077 7.36999 292.902 9.50606 290.213 9.50606H284.639V31.247C284.639 33.8639 282.464 36 279.774 36C277.096 36 274.91 33.8639 274.91 31.247V9.50606H269.348ZM307.484 12.4809C307.805 12.8052 308.251 12.9953 308.743 12.9953H319.136C321.825 12.9953 324 15.1202 324 17.7484C324 20.3765 321.825 22.5014 319.136 22.5014H308.743C308.251 22.5014 307.805 22.7027 307.484 23.0158C307.164 23.329 306.958 23.7651 306.958 24.246C306.958 24.7269 307.164 25.1631 307.484 25.4874C307.805 25.8006 308.251 25.9907 308.743 25.9907V26.0019L308.903 25.9907H319.136C321.825 25.9907 324 28.1267 324 30.7437C324 33.3719 321.825 35.4967 319.136 35.4967H308.743C305.561 35.4967 302.688 34.2442 300.605 32.2088C298.522 30.1733 297.229 27.3551 297.229 24.246C297.229 21.8304 298.007 19.5825 299.346 17.7484C298.007 15.9143 297.229 13.6664 297.229 11.2507C297.229 8.14166 298.522 5.33458 300.605 3.28798C302.688 1.25256 305.561 0 308.743 0H319.136C321.825 0 324 2.12488 324 4.75303C324 7.36999 321.825 9.50606 319.136 9.50606H308.743C308.251 9.50606 307.805 9.69618 307.484 10.0093C307.164 10.3336 306.958 10.7698 306.958 11.2507C306.958 11.7316 307.164 12.1678 307.484 12.4809Z" fill="white"/>
</svg>
